<svg id="Layer_1" data-name="Layer 1" xmlns="http://www.w3.org/2000/svg" viewBox="0 0 345.25 296.16"><defs><style>.cls-1{fill:#7a3636;}.cls-2,.cls-3{fill:#262626;}.cls-3{font-size:36px;font-family:CooperBlack, Cooper Black;}</style></defs><path class="cls-1" d="M125.6,242.78c1.34.59,2.72,1.14,4.07,1.71a34.46,34.46,0,0,0,5.76,2,13,13,0,0,0,2.87.17,13.73,13.73,0,0,1,2.84.15c.64.1,1.4.25,2.35.49s2.1.54,3.5.83a122.38,122.38,0,0,0,34.46,2.47,117.75,117.75,0,0,0,33.65-7.51,128.12,128.12,0,0,0,53.68-39.49,131.73,131.73,0,0,0,27.35-60,120.48,120.48,0,0,0,1.06-33.67,115.67,115.67,0,0,0-8.58-32.7,117.77,117.77,0,0,1,6.5,30.11,166.25,166.25,0,0,1-.21,30.45c-.68-.09-2-.25-2.87,5.1a143.18,143.18,0,0,1-6.84,23.87,133.22,133.22,0,0,1-10.81,21.64c-8.22,13.06-18,22.59-24.91,26.8a42,42,0,0,1-3.59,2.19c-1.36.7-2.86,1.46-4.6,2.44s-3.8,2.05-6.21,3.45-5.32,2.94-8.71,4.94c2.26-1.34,4.56-2.62,6.77-4s4.35-2.91,6.45-4.47L238.35,218a108.34,108.34,0,0,1-29.86,14.64,99.93,99.93,0,0,1-32.85,4.5v-2.07l-2.49,0c-.83,0-1.66-.09-2.49-.14l-5-.33c-2.34-1.5-.68-2.08,3.37-2.48,1-.09,2.17-.16,3.46-.2s2.72-.25,4.24-.36c3.06-.14,6.52-.66,10.23-1.15A107,107,0,0,0,210.14,224c1.85-.83,3.74-1.51,5.47-2.42l5.06-2.62a96.38,96.38,0,0,0,8.45-5.42c-.39-.57-1.16-1.71-1.54-2.29-2.49,1.82-5.22,3.25-7.84,4.83l-.1-.18c43.27-23.7,68.5-80.12,48.29-130.38a91,91,0,0,0-9.26-17.27l.88.92c1.34,1.53,2.73,3,4,4.55L267,78.11c2,2.78,3.51,5.06,4.33,6,1.77,3,2.73,2.62,3.1.07a22.68,22.68,0,0,0-.12-5.56,51.82,51.82,0,0,0-1.54-8.24,44,44,0,0,0-1.41-4.72c-.57-1.6-1.11-3.29-1.81-4.94a86.86,86.86,0,0,0-4.84-9.83,91.06,91.06,0,0,0-5.83-9,87.65,87.65,0,0,0-6-7c-3.76-4-3.27-4.67-1.6-4.54s4.49,1.12,5.17.34c-4.55-3.43-7.82-6.13-11.13-8.87-1.72-1.29-3.44-2.58-5.38-3.87a51.67,51.67,0,0,0-6.79-3.64c.09-.18-1.74-1.32-4.89-2.9a60.84,60.84,0,0,0-5.61-2.64c-2.18-.87-4.52-2-7.15-2.78a111.58,111.58,0,0,0-32.32-6l-5.08.29c-3.62.24-9.4.54-17.9,1.84-5.67,1-5.5,1.74-5.37,2.38l-.28-1.35a86.19,86.19,0,0,1-10.94,3.37,56.18,56.18,0,0,0-10.73,3.85l-.52-1.28c-10.07,5.68-21,10.29-29.59,17.94-.42-.55-.42-.55-.85-1.09-2.24,1.84-4.45,3.69-6.16,5s-2.79,2.28-3,2l-1-1c-4.92,3.41-11.49,13.16-12.5,12.3l1.07.88A157.23,157.23,0,0,0,63.17,71c-1.07,2.11-2.11,4.17-3.15,6.2s-1.8,4.18-2.69,6.23c-.43,1-.87,2.06-1.3,3.08l-1.11,3.14Q53.86,92.82,52.77,96a112.7,112.7,0,0,0-5.39,37.53,117.94,117.94,0,0,0,8.34,40.21,130.73,130.73,0,0,0,51.78,62.1c5.09,3.18,10.8,5,6.49.77a78.15,78.15,0,0,0,7.68,4.23Z"/><path class="cls-2" d="M18.14,91.54C21.37,82.41,41,58.05,44.2,54.82A5.36,5.36,0,0,1,49,52.73c27-14.46,37.68,42.05,25.31,54.6-3.43,3.81-7.23,4.57-11.8,4-1.9-.57-3.81-1-5.71-1.33-.95-.19-1.33-.57-1.33-1.52.19-4.76.57-9.71.76-14.46.19-2.29.38-5,.57-7.24.38-4.37.57-9.13.76-13.5V71.75c2.1-14.65-10.08-4.18-10.46-1.14a12.69,12.69,0,0,1-2.66,5,24.39,24.39,0,0,0-5.33,8c-1.72,4.19-3.81,8-5.33,12a61,61,0,0,0-4.57,16c-.76,4.19-1.33,8.18-1.71,12.37-.38,3.8-1.52,8.18-1.9,12.18a76.54,76.54,0,0,0,.38,9.32c.19,1.52.38,2.66.57,4.38,3,21.31,10.27,9.51,13.13,1.9,1.33-3.43,1.9-6.66,2.85-9.9a4.64,4.64,0,0,0-.19-4.18c-1.52-3.05.19-6.09,3.81-7.61,3.8-1.53,7.8-1.91,11.6-2.48,4.19-.57,5.9,1.91,6.28,5.14A14.39,14.39,0,0,1,63,138c-5.14,11.8-10.65,30.44-17.5,37.48-.76.38-1.34,1.52-1.91,2.29-1.33,2.28-3,3.23-5.32,2.85a25.6,25.6,0,0,0-7.62,0,18.22,18.22,0,0,1-8.94-1.52,24.23,24.23,0,0,0-3.61-.19,5,5,0,0,1-2.86-.38c-4-1.14-7-3.81-9.7-7-1.33-1.34-2.47-2.67-2.66-4.76a19.93,19.93,0,0,0-1.34-4A36,36,0,0,1,.06,149.38,44.3,44.3,0,0,1,1.2,141c1.15-4.56,2.1-8.94,3.43-13.7,1.33-3.8,3-8.18,4.18-12,1-2.29,1.72-4.57,2.67-6.66h-.76c-.19.38-.57,1-1,1.71a16.43,16.43,0,0,1-1.34,1.9C11.48,105.43,14.52,98.39,18.14,91.54Z"/><path class="cls-2" d="M76.36,125.6c-2.09-3.42-3-7.61-3.62-12-.57-3.23.39-6.28,2.1-9.32a1.88,1.88,0,0,1,1.33-1,37.14,37.14,0,0,1,5.71-3.81,8.4,8.4,0,0,1,6.09-1c1.52,0,5.71,3.81,6.66,4.57A26.47,26.47,0,0,0,98.24,106a13.74,13.74,0,0,1,3.81,5.71,27.6,27.6,0,0,0,1.71,4.19,47,47,0,0,1,1.14,5.51,33.16,33.16,0,0,0,.57,4.57c.19.19.19.19.19.57-.57-3,.19,1.33,0,1.9-.19,2.29.38,4.38-.19,6.47-.57,1.15.57,2.48,2.09,2.48,9.33-.57,12.94.76,22.08-.76,1-.38,1.9-.95,3-1.53.38-.19.95-.57,1.33-.76a1.83,1.83,0,0,1,0,1.72c-.57,1,1.33,1.33.57,2.09-5.71,6.09-23.21,5.9-30.06,5.9H104c-.57,0-1.14.19-1.14.57s-.19.57-.38,1c-.57,3.23-2.29,6.28-3.62,9.51a24.2,24.2,0,0,1-3.61,5.71A10.93,10.93,0,0,1,92.53,164c-.38.19-.76.57-1.33,1a2.22,2.22,0,0,0-1.14,1.14,11.17,11.17,0,0,1-5.33,3.61,4.93,4.93,0,0,0-1.9.76,17.94,17.94,0,0,1-7.8.2c-3.43-.38-5.71-2.86-7.61-6.09-.57-1.53-1.14-3.43-1.72-5.14A47.41,47.41,0,0,1,65.52,149a30.35,30.35,0,0,1,3.23-10.46,43,43,0,0,1,7-11.23c.57-.19.57-.57.76-1.14A.7.7,0,0,0,76.36,125.6ZM99,118a57.29,57.29,0,0,0-1.33-6.09A9.19,9.19,0,0,0,95,107.33a9.59,9.59,0,0,0-2.48-2.28,22.41,22.41,0,0,0-3.42-2.47c-2.29-1.9-6.47,2.09-7.8,3.42-5.14,7.23-.19,17.13,4.56,22.27,5.52,10.84,15.61,7,13.32-5.71A7.46,7.46,0,0,0,99,118Zm-16.93,37.1a16.45,16.45,0,0,0-.19,3c-.38.38,0,.57.19,1a4.11,4.11,0,0,0,2.09,2.28c.19,0,.19,0,.38-.19s.57-.38.76-.57c3.24-3.42,5.52-7.8,7.42-12.18a28.44,28.44,0,0,0,1.91-4.56c-4.38-1.91-6.47-.19-8.95,3C83.59,150,83.21,151.67,82.07,155.09Z"/><path class="cls-2" d="M161,108.29c1.52-3.43,3.24-6.85,4.76-9.9a50.24,50.24,0,0,0,3.42-13.51c.38-3.8-1.52-11-4.56-4.37-.76,2.28-1.9,4.56-2.67,6.85-1.33,3.61-2.66,7.42-4.18,11.41-.38,1.52-1.14,3.24-1.72,5.14a102.16,102.16,0,0,1-4.94,12.94A59.73,59.73,0,0,1,147.9,125c-2.66,6.28-1.14,3.62-3.61,10.08-.95,2.29-2.29,5.9.57,6.66,2.28-.38,8.94,2.86,10.65,2.48,2.86,0,5.52,1.71,7.81.95,1.14-.38,2.09-.57,2.85-.76,5.14-1.71,0,.57,4.76-2.29,2.28,0,6.47-9.13,8.94-8.94,8.37-4.38,2.85,5.52-4.76,11.42-.76.57-2.85,1.71-3.61,2.28-19,6.85-35.39-6.47-34.25,1.33.38,4.38.38,8.57.57,12.37a10.7,10.7,0,0,0,0,2.47c-.19,2.29-.19,4-.19,6.47a11.81,11.81,0,0,0-.57,3.43,18,18,0,0,0-.95,4.38,9.43,9.43,0,0,0-.38,3.42,21.18,21.18,0,0,0-.95,4.18h-.2c.2-.38.2-.56.38-.76,0-.38-.38-.38-.38-.19-.19,0-.38.39-.57.39a1.12,1.12,0,0,0-.19.76,5.47,5.47,0,0,1-.57,3c-.38,1.52-.95,3.24-1.14,4.57-1,2.85-1.71,5.51-3,7.42v1.33a4.37,4.37,0,0,1-1.53,3.23L127,205.9a86.68,86.68,0,0,1-4,8.37,3.45,3.45,0,0,1-2.67,2.47,8.52,8.52,0,0,0-2.28.19c-.38,0-.38.57-1,.38-.57.19-1.14.19-1.52.38a4,4,0,0,1-4-.95,24.88,24.88,0,0,1-2.47-2.28,9,9,0,0,1-2.48-6.09c-.38-.76-.57-1.52-1-2.28a32.37,32.37,0,0,1-.76-7.61,79.42,79.42,0,0,1,.19-9.33.66.66,0,0,0,.19-.38c-.57-3.42.38-6.66,1-10.08,1.14-4.76,2.29-9.71,3.62-14.27a18.32,18.32,0,0,1,.57-3.43,10.29,10.29,0,0,1,.76-2.85,10.48,10.48,0,0,1,.95-3.24,5.87,5.87,0,0,1,.38-1.52,46.09,46.09,0,0,0,1.72-6.28c1.33-4.76,1.71-5.52,4.37-12.18.19-.95,1-1.52,1-2.47.76-3.8,11.8-29.11,19.79-44.52.38-.57-4.56,5.32-4.18,4.75.57-1.14,6.08-8.56,6.84-9.7,3.05-5,4.38-6.28,6.09-6.66,1.33-1.33,4.38-4.19,6.09-5.52,2.29-2.09,7.42-3.61,9.9-2.66a4.82,4.82,0,0,0,2.28.38c2.85.38,4.95,2.09,6.85,3.8,0,.58.76,1,1.33,1.72.57,2.47,2.47,4.94,1.71,8.37,1.15,3.23.58,5.52-.57,8.75a83.25,83.25,0,0,1-9.89,18.08,4.5,4.5,0,0,1-2.47,2.47c-1.34.76-2.67,1.14-4.19,2.09A18.66,18.66,0,0,1,161,108.29Zm-33.11,53.84c-.57,1.72-1.14,3.62-1.71,5.52a11.08,11.08,0,0,0-.57,3.62c-.38,1.9-1,3.61-1.14,5.32a40.8,40.8,0,0,1-1.33,4.57c.38,1.33-.38,1.9-.57,3-.19.76-.57,1.53-.76,2.48,0,1.71-.57,3-1,4.94a26.29,26.29,0,0,1-.76,3.43,16.57,16.57,0,0,0-1,4.19c0,1.9-.19,3.8-.19,5.32a4.58,4.58,0,0,0,.38,1.53c1.91,3.8,3.24-1.15,3.62-2.1,1.14-2.66.38-1.33,1.52-4.18.57-2.29,1.33-4.95,2.09-7.23a45.88,45.88,0,0,0,1-5c.76-4.57,1.34-9.71,1.91-14.65a103.11,103.11,0,0,0,1.33-11c.57-11.41-1.71-4.37-2.28-1.52C128.3,161,128.12,161.56,127.92,162.13Zm5.71-60.89a64.3,64.3,0,0,0-5.13,12.56V115c1.52-2.67,2.47-5.71,3.61-8.19a23.71,23.71,0,0,0,2.09-5.9A3.25,3.25,0,0,0,133.63,101.24Zm8.57-12.36a59.94,59.94,0,0,1-4.57,7.23A4.25,4.25,0,0,1,136.11,99a2.76,2.76,0,0,1,.19-1.14C138,94,140.86,90.59,143.15,87c-.57-.77-.19-.77-.19-.77q4.84-6.27,8.56-10.27c.38-.38,1.52-.76,1.52-1.71a22.73,22.73,0,0,0,1.71-1.91,21.89,21.89,0,0,0-2.85,2.29c-1,.76-1.9,1.14-2.66,2.66A82.46,82.46,0,0,0,136.3,96.49a35.49,35.49,0,0,1-1.72,5c-.57,1.33-.19,1.9-.57,3v.57a29.21,29.21,0,0,0,2.29-5.33c1.14-2.09,5.32-8.56,6.08-10.27Z"/><path class="cls-2" d="M208.79,108.29c1.52-3.43,3.24-6.85,4.76-9.9A50.24,50.24,0,0,0,217,84.88c.38-3.8-1.52-11-4.56-4.37-.76,2.28-1.9,4.56-2.67,6.85-1.33,3.61-2.66,7.42-4.18,11.41-.38,1.52-1.14,3.24-1.72,5.14a102.16,102.16,0,0,1-4.94,12.94,59.73,59.73,0,0,1-3.24,8.18c-2.66,6.28-1.14,3.62-3.61,10.08-1,2.29-2.29,5.9.57,6.66,2.28-.38,8.94,2.86,10.65,2.48,2.86,0,5.52,1.71,7.81.95,1.14-.38,2.09-.57,2.85-.76,5.14-1.71,0,.57,4.76-2.29,2.28,0,6.46-9.13,8.94-8.94,8.37-4.38,2.85,5.52-4.76,11.42-.76.57-2.85,1.71-3.61,2.28-19,6.85-35.39-6.47-34.25,1.33.38,4.38.38,8.57.57,12.37a10.7,10.7,0,0,0,0,2.47c-.19,2.29-.19,4-.19,6.47a11.81,11.81,0,0,0-.57,3.43,18,18,0,0,0-.95,4.38,9.43,9.43,0,0,0-.38,3.42,21.88,21.88,0,0,0-1,4.18h-.19c.19-.38.19-.56.38-.76,0-.38-.38-.38-.38-.19-.19,0-.38.39-.57.39a1.12,1.12,0,0,0-.19.76,5.47,5.47,0,0,1-.57,3c-.38,1.52-.95,3.24-1.14,4.57-1,2.85-1.71,5.51-3,7.42v1.33a4.37,4.37,0,0,1-1.53,3.23l-.57,1.15a86.68,86.68,0,0,1-4,8.37,3.45,3.45,0,0,1-2.67,2.47,8.52,8.52,0,0,0-2.28.19c-.38,0-.38.57-.95.38-.57.19-1.14.19-1.52.38a4,4,0,0,1-4-.95,24.88,24.88,0,0,1-2.47-2.28,9,9,0,0,1-2.48-6.09c-.38-.76-.57-1.52-1-2.28a32.37,32.37,0,0,1-.76-7.61,79.42,79.42,0,0,1,.19-9.33.66.66,0,0,0,.19-.38c-.57-3.42.38-6.66,1-10.08,1.14-4.76,2.29-9.71,3.62-14.27a18.32,18.32,0,0,1,.57-3.43,10.29,10.29,0,0,1,.76-2.85,10.48,10.48,0,0,1,.95-3.24,5.87,5.87,0,0,1,.38-1.52A44.59,44.59,0,0,0,162,147.1c1.34-4.76,1.72-5.52,4.38-12.18.19-.95.95-1.52.95-2.47.76-3.8,11.8-29.11,19.79-44.52.38-.57-4.57,5.32-4.18,4.75.57-1.14,6.08-8.56,6.84-9.7,3.05-5,4.38-6.28,6.09-6.66,1.33-1.33,4.38-4.19,6.09-5.52,2.29-2.09,7.42-3.61,9.9-2.66a4.82,4.82,0,0,0,2.28.38c2.85.38,4.95,2.09,6.85,3.8,0,.58.76,1,1.33,1.72.57,2.47,2.47,4.94,1.71,8.37,1.14,3.23.58,5.52-.57,8.75a83.68,83.68,0,0,1-9.89,18.08,4.5,4.5,0,0,1-2.47,2.47c-1.34.76-2.67,1.14-4.19,2.09A18.66,18.66,0,0,1,208.79,108.29Zm-33.11,53.84c-.57,1.72-1.14,3.62-1.71,5.52a11.08,11.08,0,0,0-.57,3.62c-.38,1.9-1,3.61-1.14,5.32a40.8,40.8,0,0,1-1.33,4.57c.38,1.33-.38,1.9-.57,3-.19.76-.57,1.53-.76,2.48,0,1.71-.58,3-1,4.94a26.29,26.29,0,0,1-.76,3.43,16.57,16.57,0,0,0-.95,4.19c0,1.9-.19,3.8-.19,5.32a4.58,4.58,0,0,0,.38,1.53c1.9,3.8,3.24-1.15,3.62-2.1,1.14-2.66.38-1.33,1.52-4.18.57-2.29,1.33-4.95,2.09-7.23a45.88,45.88,0,0,0,1-5c.76-4.57,1.34-9.71,1.91-14.65a103.11,103.11,0,0,0,1.33-11c.57-11.41-1.71-4.37-2.28-1.52C176.06,161,175.88,161.56,175.68,162.13Zm5.71-60.89a64.3,64.3,0,0,0-5.13,12.56V115c1.52-2.67,2.47-5.71,3.61-8.19a23.71,23.71,0,0,0,2.09-5.9A3.25,3.25,0,0,0,181.39,101.24ZM190,88.88a61.21,61.21,0,0,1-4.57,7.23A4.25,4.25,0,0,1,183.87,99a2.76,2.76,0,0,1,.19-1.14c1.71-3.8,4.56-7.23,6.85-10.84-.57-.77-.19-.77-.19-.77q4.84-6.27,8.56-10.27c.38-.38,1.52-.76,1.52-1.71a22.73,22.73,0,0,0,1.71-1.91,21.89,21.89,0,0,0-2.85,2.29c-.95.76-1.9,1.14-2.66,2.66a82.46,82.46,0,0,0-12.94,19.22,35.49,35.49,0,0,1-1.72,5c-.57,1.33-.19,1.9-.57,3v.57a29.21,29.21,0,0,0,2.29-5.33c1.14-2.09,5.32-8.56,6.08-10.27Z"/><path class="cls-2" d="M241.52,141.2a4.47,4.47,0,0,1-1.9-.95,17.23,17.23,0,0,1-4.38-4c0-.19-.19-.19-.57-.39-.19.2-.38.2-.38.39-1.33,2.09-2.67,4-3.24,6.47a.69.69,0,0,0-.19.57,5,5,0,0,0,.95,5.13,26.37,26.37,0,0,0,6.28,5.9,19.81,19.81,0,0,0,3.24,2.28,6,6,0,0,0,5.33,1.15,26.3,26.3,0,0,0,10.65-3.62c2.47-1.71,4.95-3,7.42-4.76,1.9-1.33,3.62-2.85,5.33-4.18l8.75-7.61c0-.38.19-.76.19-1.14.19-3.81,1.9-7,3.62-10.28A61.75,61.75,0,0,1,298,106.57a19.17,19.17,0,0,1,5.14-3.61,4.43,4.43,0,0,1,3.8-.38c.76.38,1.91.57,2.86,1a15.85,15.85,0,0,1,2.28,1.52c1.52,1.14,3,2.28,4.57,3.24a3.59,3.59,0,0,1,1.52,1.9,2.36,2.36,0,0,0,1.14,1.52,16.43,16.43,0,0,1,1.9,1.33,13.51,13.51,0,0,1,2.86,3.81,9.41,9.41,0,0,1,.38,3.23,33.19,33.19,0,0,1-2.29,9.52,11.61,11.61,0,0,1-1.33,2.66l-1.33,2.66-3.81,7.42c-.57,1.15-1.9,2.29-2.66,3.43-1.33,2.09-3.42,3-5.52,4a4.51,4.51,0,0,1-3.8,0l-1.9-.58a6.62,6.62,0,0,1-3.24-1.14,2.64,2.64,0,0,0-1.9-1,.66.66,0,0,0-.38.19,35.22,35.22,0,0,0-.76,4.38,11.39,11.39,0,0,0,3.61,9.32c1.9,1.52,4,2.47,6.47,1.9a43.7,43.7,0,0,0,5.33-1.33,13.14,13.14,0,0,0,3.61-1.9c5.14-3.43,10.28-6.85,15.22-10.47a19.68,19.68,0,0,0,4.57-4.37c1.33-1.52,2.86-3,4.19-4.76a34.59,34.59,0,0,0,5.13-7.8,10.85,10.85,0,0,0,1.15-2.66c.57,0,.38.38.38.57v1.14a32.22,32.22,0,0,0-.76,4.18,11.76,11.76,0,0,1-1.15,3.43c-.95,1.52-1.9,3-3,4.57a6.26,6.26,0,0,0-1.33,2.47,15,15,0,0,1-3.24,4.95,4.34,4.34,0,0,0-1.33,1.9c0,.19-.38.57-.57.76a41.4,41.4,0,0,1-5.52,4,37.85,37.85,0,0,0-3.61,2.28,16.67,16.67,0,0,1-5.71,3,44,44,0,0,0-6.66,3.24,33.12,33.12,0,0,1-14.65,4.57,27.88,27.88,0,0,1-7.8-.77,8,8,0,0,1-1.72-1,15.08,15.08,0,0,1-6.08-5.9,29.29,29.29,0,0,1-3.43-9.7,9.54,9.54,0,0,1-.38-2.28,3.23,3.23,0,0,1-.19-1.33c.38-1.34,0-2.48,0-3.81.19-1.14,0-2.28.19-3.62l-1.14,1.15a7.44,7.44,0,0,0-1.52,1.9,19,19,0,0,1-2.86,2.66c-1.14.95-2.28,2.1-3.42,2.86-1.53,1.33-3.05,2.47-4.57,3.61a41.9,41.9,0,0,1-9.32,5.71,26.34,26.34,0,0,1-5.14,1.52,54.06,54.06,0,0,1-5.52.57,5.26,5.26,0,0,1-1.71.19,13.36,13.36,0,0,1-4.76,0,33.14,33.14,0,0,1-13.13-5.32,27.71,27.71,0,0,1-8.18-9.9,26.45,26.45,0,0,1-1.14-2.47,19.71,19.71,0,0,1-1.33-8.75,32.27,32.27,0,0,1,5.14-15.42,47.93,47.93,0,0,1,11.41-13.32,24.15,24.15,0,0,1,5.52-3.42c1-.38,1.9-.38,2.85-.76a3.59,3.59,0,0,0,1.53-.38,2.9,2.9,0,0,1,3,.19l3.81,2.85c.76.38,1.33,1,2.09,1a3.94,3.94,0,0,1,1.9,1.14l2.86,2.86,1.33,1.71c0,.57.57,1,1,1.14a16.73,16.73,0,0,1,4.38,8.76,14.2,14.2,0,0,1-.57,6.28,41.89,41.89,0,0,1-2.48,6.84,9.31,9.31,0,0,1-4.95,5.14,1.41,1.41,0,0,1-.76.38,23,23,0,0,0-3.42,1,10.33,10.33,0,0,1-3.42,0l-.2-.19c-.76-1-.76-1-1.52,0Zm11.41-25.3a11.5,11.5,0,0,0-5.13,2.85L245.13,121a5.82,5.82,0,0,0-1.52,1.53c-1.33,1.52-2.47,3-3.61,4.56L237,131.69l-.38.76c.38.19.57.38.76.38a21.59,21.59,0,0,0,7.8-.38,5.2,5.2,0,0,0,3.24-2.47,34.3,34.3,0,0,0,5.33-12,4.11,4.11,0,0,0-.19-2.09C253.31,115.9,253.13,115.71,252.93,115.9Zm48.91,26.25a3.57,3.57,0,0,0,3.23-1.52,30,30,0,0,0,3.42-4.76c.95-2.09,2.1-4.18,3.05-6.46l1.14-2.67,1.71-6.66.95-5.13v-1.72c0-.57-.57-.76-1.14-.38l-.38.38a11.35,11.35,0,0,0-3.23,5.14,27.51,27.51,0,0,1-3,6.85,60.41,60.41,0,0,1-4.37,6.85,64,64,0,0,0-4.38,8,2,2,0,0,0-.19,1.52A19.14,19.14,0,0,0,301.84,142.15Z"/><text class="cls-3" transform="translate(119.29 285.19)">MUGS</text></svg>